# xmcd
# 
# Track frame offsets:
#     150
#     10268
#     22713
#     35175
#     48043
#     56915
#     68782
#     77133
#     84385
#     95050
#     112468
# 
# Disc length: 1721
# 
# Revision: 2
# Processed by: cddbd v1.5.2PL0 Copyright (c) Steve Scherf et al.
# Submitted via: BonkEnc v1.0
# 
DISCID=8e06b70b
DTITLE=Glen Campbell/Christmas with Glen Campbell - Glen Campbell/Christmas with Glen Campbell
DYEAR=0
DGENRE=
TTITLE0=Santa Claus Is Coming To Town
TTITLE1=Winter Wonderland
TTITLE2=White Christmas
TTITLE3=Sleigh Ride
TTITLE4=God Rest Ye Merry Gentlemen
TTITLE5=Frosty The Snowman
TTITLE6=Jingle Bell Rock
TTITLE7=Here Comes Santa Claus
TTITLE8=Let It Snow! Let It Snow! Let It Snow!
TTITLE9=Do You Hear What I Hear
TTITLE10=I Saw Three Ships
EXTD=
EXTT0=
EXTT1=
EXTT2=
EXTT3=
EXTT4=
EXTT5=
EXTT6=
EXTT7=
EXTT8=
EXTT9=
EXTT10=
PLAYORDER=
